<svg id="a" xmlns="http://www.w3.org/2000/svg" viewBox="0 0 40 40"><circle cx="20" cy="20" r="20" fill="#555"/><circle cx="20" cy="20" r="5" fill="#a0253c"/><path d="M5.23,33.38c-.14-.15-.23-.36-.23-.57,0-2.17,0-13.87,0-13.87,0,0,.26-13.05,14.06-14.06,11.65-.85,22.8,14.62,11.23,25.96-.02,.02-.03,.03-.04,.05-.27,.31-3.49,3.88-9.49,4.16-.46,.02-.84,.4-.83,.86l.06,3.27c0,.47-.14,.78-.61,.79-.74,.02-2.16-.05-3.77-.46-.36-.09-.6-.42-.6-.79v-8.86c0-.6,.6-1,1.16-.79,1.74,.68,5.19,1.51,8.66-.54,4.93-2.93,4.93-7.86,4.93-7.86,0,0,.31-10.44-10.44-10.44,0,0-8.31,.13-9.32,9.27,0,.03,0,.07,0,.1l.02,16.03c0,.68-.75,1.08-1.32,.71-.92-.61-2.21-1.59-3.48-2.94Z" fill="#333"/></svg>